<svg xmlns="http://www.w3.org/2000/svg" viewBox="0 0 512 512" role="img" aria-label="Gesso">
  <rect width="512" height="512" rx="72" fill="#222222"/>
  <g stroke="#f2efe8" stroke-width="6">
    <path d="M92 147H420M92 202H420M92 257H420M92 312H420M92 367H420M92 420H420M147 92V420M202 92V420M257 92V420M312 92V420M367 92V420M420 92V420"/>
  </g>
  <path fill="#f2efe8" d="M92 92H420V270L407 276L394 284L380 289L367 302L353 306L340 317L326 322L313 335L299 339L286 351L272 356L259 369L245 373L232 386L218 390L205 403L191 407L178 420H92Z"/>
  <path fill="#222222" d="m164 376-48-48 232-232 48 48Z"/>
</svg>
