<svg xmlns="http://www.w3.org/2000/svg" viewBox="0 0 512 512" role="img" aria-label="Gesso">
  <rect width="512" height="512" rx="72" fill="#222222"/>
  <g stroke="#f2efe8" stroke-width="6">
    <path d="M280 280H420M280 350H420M280 420H420M280 280V420M350 280V420M420 280V420"/>
  </g>
  <path fill="#f2efe8" d="M92 92H420V270L407 267L394 278L380 275L367 287L353 283L340 296L326 292L313 305L299 301L286 314L272 310L259 323L245 319L232 332L218 328L205 341L191 337L178 350L164 346L151 359L137 355L124 368L110 364L92 376Z"/>
  <path fill="#222222" d="m164 376-48-48 232-232 48 48Z"/>
</svg>
